<svg width="24" height="24" viewBox="0 0 24 24" fill="none" xmlns="http://www.w3.org/2000/svg">
<path d="M13.091 8.45456C13.091 8.74388 12.9761 9.02136 12.7715 9.22595C12.5669 9.43053 12.2894 9.54547 12.0001 9.54547C11.7108 9.54547 11.4333 9.43053 11.2287 9.22595C11.0241 9.02136 10.9092 8.74388 10.9092 8.45456C10.9092 8.16523 11.0241 7.88775 11.2287 7.68317C11.4333 7.47858 11.7108 7.36365 12.0001 7.36365C12.2894 7.36365 12.5669 7.47858 12.7715 7.68317C12.9761 7.88775 13.091 8.16523 13.091 8.45456Z" fill="white" stroke="white" stroke-width="2" stroke-linejoin="round"/>
<path d="M18 9C18 12.3142 15.8182 16.0909 12 20.4545C8.18182 16.0909 6 12.3142 6 9C6 7.4087 6.63214 5.88258 7.75736 4.75736C8.88258 3.63214 10.4087 3 12 3C13.5913 3 15.1174 3.63214 16.2426 4.75736C17.3679 5.88258 18 7.4087 18 9Z" stroke="white" stroke-width="2" stroke-linejoin="round"/>
</svg>
