<svg width="16" height="18" viewBox="0 0 16 18" fill="none" xmlns="http://www.w3.org/2000/svg">
<path d="M1.77778 17.7778C1.28889 17.7778 0.870518 17.6038 0.522667 17.256C0.174815 16.9081 0.000592593 16.4895 0 16V3.55556C0 3.06667 0.174222 2.6483 0.522667 2.30044C0.871111 1.95259 1.28948 1.77837 1.77778 1.77778H2.66667V0H4.44444V1.77778H11.5556V0H13.3333V1.77778H14.2222C14.7111 1.77778 15.1298 1.952 15.4782 2.30044C15.8267 2.64889 16.0006 3.06726 16 3.55556V16C16 16.4889 15.8261 16.9076 15.4782 17.256C15.1304 17.6044 14.7117 17.7784 14.2222 17.7778H1.77778ZM1.77778 16H14.2222V7.11111H1.77778V16Z" fill="white"/>
</svg>
